<?xml version="1.0" encoding="UTF-8" standalone="no"?>
<svg
   id="Udemy_Benesse_LockUp"
   data-name="Udemy Benesse LockUp"
   viewBox="0 0 359.9944 63.979999"
   version="1.1"
   sodipodi:docname="logo-udemy-benesse-white.svg"
   width="359.99442"
   height="63.98"
   inkscape:version="1.2.1 (9c6d41e4, 2022-07-14)"
   xmlns:inkscape="http://www.inkscape.org/namespaces/inkscape"
   xmlns:sodipodi="http://sodipodi.sourceforge.net/DTD/sodipodi-0.dtd"
   xmlns="http://www.w3.org/2000/svg"
   xmlns:svg="http://www.w3.org/2000/svg">
  <sodipodi:namedview
     id="namedview509"
     pagecolor="#ffffff"
     bordercolor="#000000"
     borderopacity="0.25"
     inkscape:showpageshadow="2"
     inkscape:pageopacity="0.0"
     inkscape:pagecheckerboard="0"
     inkscape:deskcolor="#d1d1d1"
     showgrid="false"
     inkscape:zoom="1.7370823"
     inkscape:cx="179.89937"
     inkscape:cy="31.662288"
     inkscape:window-width="1309"
     inkscape:window-height="456"
     inkscape:window-x="0"
     inkscape:window-y="23"
     inkscape:window-maximized="0"
     inkscape:current-layer="Udemy_Benesse_LockUp" />
  <defs
     id="defs460">
    <style
       id="style458">.cls-1,.cls-2{fill:#fff;}.cls-2{fill-rule:evenodd;}</style>
  </defs>
  <path
     class="cls-1"
     d="m 21.164402,18.350006 -10.57,-6.1 -10.57000033,6.1 v -6.1 L 10.594402,6.1500056 l 10.57,6.1000004 z"
     id="path462" />
  <path
     class="cls-1"
     d="M 0.02440167,23.480006 H 5.5544017 v 13.45 a 5.035,5.035 0 1 0 10.0700003,0 v -13.45 h 5.54 v 13.77 c 0,3.2 -1,5.68 -3,7.37 a 11.37,11.37 0 0 1 -7.6,2.52 11.18,11.18 0 0 1 -7.5500003,-2.52 9,9 0 0 1 -3.00000003,-7.23 z"
     id="path464" />
  <path
     class="cls-1"
     d="m 69.034402,40.200006 a 8.38,8.38 0 0 1 -5.76,2.22 c -4,0 -6.64,-2.26 -6.94,-5.76 h 17.89 c 0,0 0.12,-1.14 0.12,-2.2 a 11.46,11.46 0 0 0 -3.2,-8.28 10.74,10.74 0 0 0 -8.19,-3.34 11.53,11.53 0 0 0 -12.08,12.17 v 0.18 a 11.44,11.44 0 0 0 3.38,8.65 12.29,12.29 0 0 0 8.83,3.25 v 0 a 12.88,12.88 0 0 0 10.06,-4.52 z m -10.52,-11.23 a 7.08,7.08 0 0 1 4.44,-1.47 5.93,5.93 0 0 1 4.07,1.51 4.52,4.52 0 0 1 1.73,3.35 h -12.28 a 5.06,5.06 0 0 1 2.04,-3.39 z"
     id="path466" />
  <path
     class="cls-1"
     d="m 124.7744,50.200006 c -2.25,5.3 -4.6,7.11 -8.2,7.11 h -2.5 v -4.91 h 2 c 1.24,0 2.39,-0.47 3.49,-3 l 1.1,-2.54 -9.47,-23.38 h 5.63 l 6.72,16.84 6.91,-16.84 h 5.63 c 0,0 -8.99,21.31 -11.31,26.72 z"
     id="path468" />
  <path
     class="cls-1"
     d="m 42.724402,14.650006 v 10.92 a 11.4,11.4 0 0 0 -7.34,-2.6 11,11 0 0 0 -8.24,3.48 11.88,11.88 0 0 0 -3.29,8.56 12,12 0 0 0 3.29,8.6 11.08,11.08 0 0 0 8.24,3.43 10.64,10.64 0 0 0 7.37,-2.62 v 2.12 h 5.49 v -31.89 z m -1.65,25.39 a 6.83,6.83 0 0 1 -5,2 6.63,6.63 0 0 1 -4.9,-2 7.55,7.55 0 0 1 0,-10.06 6.63,6.63 0 0 1 4.9,-2 6.83,6.83 0 0 1 5,2 7.17,7.17 0 0 1 0,10.06 z"
     id="path470" />
  <path
     class="cls-1"
     d="m 102.6744,23.020006 a 9.62,9.62 0 0 0 -7.829998,3.4 6.53,6.53 0 0 0 -6.17,-3.4 7.78,7.78 0 0 0 -6.23,2.86 v -2.4 h -5.44 v 23.06 h 5.44 v -13.27 c 0,-3.11 1.93,-5.35 4.49,-5.35 2.56,0 4.12,2 4.12,5.12 v 13.5 h 5.44 v -13.27 c 0,-3.16 1.88,-5.35 4.579998,-5.35 2.7,0 4.12,2 4.12,5.12 v 13.5 h 5.49 v -14.28 c 0,-6.01 -3.23,-9.24 -8.01,-9.24 z"
     id="path472" />
  <path
     class="cls-1"
     d="m 139.0744,27.790006 v -3.62 h -1.15 v -0.69 h 3.07 v 0.69 h -1.15 v 3.62 z"
     id="path474" />
  <path
     class="cls-1"
     d="m 141.7344,27.790006 v -4.31 h 0.65 l 1.53,2.39 1.52,-2.39 h 0.65 v 4.31 h -0.7 v -2.94 l -1.45,2.25 -1.46,-2.24 v 2.93 z"
     id="path476" />
  <path
     class="cls-1"
     d="m 202.9544,17.250006 a 23.87,23.87 0 0 1 4.78,2.54 c 1.42,0.58 3.6,1.48 3.6,1.44 a 29.27,29.27 0 0 1 -1.34,4.85 c -0.42,1.18 -1.23,3.67 -1.56,5.1 0.63,0.85 1.9,2.39 1.9,2.43 a 13.48,13.48 0 0 1 1.91,7.58 c 0.71,2.45 3.43,5.62 9,7.34 -0.42,0.35 -3.82,3.47 -3.87,3.42 -3.65,-4.2 -7.09,-6.78 -8,-8.27 a 61,61 0 0 0 -0.85,-7.42 c -0.52,-0.73 -1.17,-1.85 -1.17,-1.85 l -1.23,5.22 -9.07,12.52 -7,-3.66 c 1.83,-1 4.06,-1.67 5.67,-2.62 a 34.13,34.13 0 0 1 5.5,-6.27 c 1,-1.36 1.71,-2.33 2.51,-3.36 0.23,-2 1.94,-9.68 2.17,-11.85 a 15.58,15.58 0 0 1 -8.52,2.5 22.94,22.94 0 0 1 -8.25,-1.34 c 0,0 0.45,-1.6 0.5,-1.68 a 19,19 0 0 0 12.41,-2.46 17.22,17.22 0 0 1 -10.66,-6.15 c 0,0 -0.15,-1.82 -0.15,-1.82 0,0 2.49,1 2.46,0.94 2.69,2.16 6.23,2.64 9.26,2.87 z"
     id="path478" />
  <path
     class="cls-1"
     d="m 209.6444,16.850006 a 2.51,2.51 0 0 1 1.31,-2 1.47,1.47 0 0 1 1.89,0.82 9.14,9.14 0 0 1 -1.09,2.51 2,2 0 0 1 -1.27,0.13 c -0.34,-0.09 -0.69,-0.9 -0.84,-1.46 z"
     id="path480" />
  <path
     class="cls-1"
     d="m 220.6844,24.440006 a 1.59,1.59 0 0 1 0.86,-1.54 1.29,1.29 0 0 1 1.26,0.47 1.48,1.48 0 0 1 0.21,1.24 3.33,3.33 0 0 1 -0.79,0.54 h -0.71 a 2.21,2.21 0 0 1 -0.83,-0.71 z"
     id="path482" />
  <path
     class="cls-1"
     d="m 216.5544,27.470006 a 7.81,7.81 0 0 1 3.11,-0.46 3.29,3.29 0 0 0 0.72,-0.22 13.54,13.54 0 0 1 7.27,2.41 9.78,9.78 0 0 1 3.73,10.11 c -2.26,-5.79 -5.51,-8.5 -8.21,-9.65 -0.08,-0.09 -0.44,-0.39 -0.44,-0.39 0,0 -0.1,0.8 -0.11,1 a 60.39,60.39 0 0 1 1.18,7.42 c 0.19,0.55 1.29,2.71 1.29,2.71 0,0 1.59,2.27 2.19,3.31 0.6,1.04 2.76,5 3.68,6.6 -0.91,0.35 -4.39,1.61 -4.39,1.61 l -1.65,-5 c 0,0 -1.88,-4.49 -2.41,-5.63 -0.69,-2.11 -1.35,-4.27 -1.94,-5.73 0,0 -1.22,0.14 -1.23,0.16 a 6.37,6.37 0 0 1 -0.25,3.33 28.71,28.71 0 0 1 -3.52,6.09 c 0,1.19 -0.19,3.39 -0.24,4.38 a 10.68,10.68 0 0 0 -0.81,1.24 l -2.71,2.25 a 25.29,25.29 0 0 1 2.89,-11.43 c 1.79,-1.71 3.15,-3.34 2.72,-5.59 a 15.24,15.24 0 0 1 -1.34,-5.81 20.66,20.66 0 0 0 -1.18,5.93 18.83,18.83 0 0 0 -2.52,5.43 l -1.84,-1.26 a 29.78,29.78 0 0 1 1.72,-6.62 33.94,33.94 0 0 1 4.29,-6.19 z"
     id="path484" />
  <path
     class="cls-1"
     d="m 237.3144,38.940006 -0.21,-0.55 a 36.07,36.07 0 0 1 6.34,-4.33 3.87,3.87 0 0 0 0.55,-2.1 10.63,10.63 0 0 1 2.82,-0.47 c 0.06,1.13 0.06,3.27 -1.73,4.23 -1.34,1.93 -3.56,3.37 -7.77,3.22 z"
     id="path486" />
  <path
     class="cls-1"
     d="m 234.2044,39.040006 2.68,-0.6 a 25.31,25.31 0 0 0 -0.16,2.68 17.5,17.5 0 0 1 -0.11,2.08 l 9.61,0.9 a 16.05,16.05 0 0 0 1.8,-0.5 c 0.15,0.55 0.72,2.33 0.72,2.33 l -2.21,0.16 a 12.79,12.79 0 0 0 -5.78,-0.92 19.13,19.13 0 0 1 -3.85,0.62 17.73,17.73 0 0 1 -4.43,2.09 c -1.29,0.1 -2.19,0.18 -2.67,0.24 -0.48,0.06 -1.49,0.29 -1.85,0.35 0,-0.78 0,-1.92 0,-1.92 0,0 0.45,0 1,0 a 25.27,25.27 0 0 0 3.63,-0.71 29.8,29.8 0 0 1 3.55,-1.84 c 0,-0.19 -0.07,-0.53 -0.07,-0.53 l -0.51,0.09 a 20.65,20.65 0 0 1 -0.92,-1.94 9.57,9.57 0 0 1 -0.45,-1.69 l -1.25,-0.57 a 8.12,8.12 0 0 0 -3.22,0.65 c -0.45,0.47 -1.63,2 -1.63,2 a 5.13,5.13 0 0 1 0.3,-3.22 3.47,3.47 0 0 1 2.7,-1.65 c 1.3,0.05 1.88,0.44 3.12,1.9 z"
     id="path488" />
  <path
     class="cls-1"
     d="m 235.3844,37.470006 -0.48,-0.14 -0.7,-1.31 a 1,1 0 0 1 1.05,-0.8 1,1 0 0 1 0.85,0.76 1.8,1.8 0 0 1 0,0.8 1.74,1.74 0 0 1 -0.72,0.69 z"
     id="path490" />
  <path
     class="cls-2"
     d="m 280.1844,38.520006 0.63,-1.62 a 24.43,24.43 0 0 0 3.72,0 c 0,-3 -0.93,-4.93 -2.69,-4.93 -1.38,0 -2.85,1.53 -2.85,5.59 0,3.28 1.68,7.21 5.57,7.21 a 5.88,5.88 0 0 0 3.18,-0.85 l -0.45,1.68 a 8.33,8.33 0 0 1 -4.35,1.22 c -4.75,0 -7.74,-3.33 -7.74,-8.23 0,-4.9 3.54,-7.89 7,-7.89 3.91,0 6.49,3.33 6.49,7.79 -1.28,0 -2.68,-0.09 -4,-0.09 -1.32,0 -2.79,0.08 -4.51,0.12 z"
     id="path492" />
  <path
     class="cls-2"
     d="m 289.5644,33.170006 c 0,0 0.44,-1.16 0.44,-1.16 a 25.88,25.88 0 0 0 5.42,-1 c -0.07,0.9 -0.11,1.24 -0.11,2.21 1.31,-1.16 2.91,-2.34 4.65,-2.34 1.74,0 4.2,1.28 4.06,5.26 -0.08,2.37 -0.12,5 -0.12,7.13 0,1.39 0.69,2.16 2.34,2.25 0,0 -0.41,1.08 -0.41,1.08 a 35,35 0 0 0 -5.52,0 c 0,-2.5 0.08,-6.27 0.08,-9.22 0,-2.17 -0.19,-4 -2.35,-3.92 a 3.44,3.44 0 0 0 -2.69,1.6 c -0.1,2.71 -0.1,6.38 0,8.82 0,1 0.54,1.49 2,1.64 0,0 -0.44,1.08 -0.44,1.08 a 58.35,58.35 0 0 0 -7.12,0 l -0.2,-1.1 c 1.33,-0.18 2,-0.59 2.11,-1.61 a 52.2,52.2 0 0 0 0.25,-5.6 15.28,15.28 0 0 0 -0.27,-4.08 c -0.3,-0.7 -1,-1.1 -2.12,-1.04 z"
     id="path494" />
  <path
     class="cls-2"
     d="m 331.0744,30.970006 v 3.92 l -1,0.37 c -0.42,-2 -1.51,-3.32 -3.41,-3.32 a 2.27,2.27 0 0 0 -2.53,2.2 2.05,2.05 0 0 0 1.52,2 c 1.11,0.41 3.07,1.13 4,1.52 a 4.23,4.23 0 0 1 2.72,4 c 0,2.35 -1.92,5.26 -6.73,5.26 -1.27,0 -3.27,-0.25 -4.81,-0.25 v -4.69 l 1.13,-0.41 c 0.21,2.12 1.62,4.06 4,4.06 a 2.68,2.68 0 0 0 3,-2.6 2.33,2.33 0 0 0 -1.62,-2.11 c -1.13,-0.53 -3.29,-1.25 -4.37,-1.89 a 3.92,3.92 0 0 1 -2,-3.52 c 0,-1.85 1.45,-4.75 6,-4.75 1.29,0.03 2.9,0.24 4.1,0.21 z"
     id="path496" />
  <path
     class="cls-2"
     d="m 311.0144,38.520006 0.63,-1.62 a 24.42,24.42 0 0 0 3.72,0 c 0,-3 -0.92,-4.93 -2.69,-4.93 -1.39,0 -2.85,1.53 -2.85,5.59 0,3.28 1.68,7.21 5.57,7.21 a 5.91,5.91 0 0 0 3.19,-0.85 l -0.46,1.68 a 8.39,8.39 0 0 1 -4.36,1.22 c -4.74,0 -7.73,-3.33 -7.73,-8.23 0,-4.9 3.53,-7.89 7,-7.89 3.91,0 6.5,3.33 6.5,7.79 -1.29,0 -2.68,-0.09 -4,-0.09 -1.32,0 -2.8,0.08 -4.52,0.12 z"
     id="path498" />
  <path
     class="cls-2"
     d="m 343.9744,30.970006 v 3.92 l -1,0.37 c -0.43,-2 -1.52,-3.32 -3.42,-3.32 a 2.26,2.26 0 0 0 -2.52,2.2 2,2 0 0 0 1.52,2 c 1.1,0.41 3.07,1.13 4,1.52 a 4.22,4.22 0 0 1 2.73,4 c 0,2.35 -1.93,5.26 -6.72,5.26 -1.3,0 -3.28,-0.25 -4.82,-0.25 v -4.69 l 1.12,-0.41 c 0.21,2.12 1.63,4.06 4,4.06 a 2.68,2.68 0 0 0 3,-2.6 2.35,2.35 0 0 0 -1.62,-2.11 c -1.13,-0.53 -3.31,-1.25 -4.38,-1.89 a 3.94,3.94 0 0 1 -2,-3.52 c 0,-1.85 1.46,-4.75 6,-4.75 1.31,0.03 2.91,0.24 4.11,0.21 z"
     id="path500" />
  <path
     class="cls-2"
     d="m 351.4644,38.520006 0.64,-1.62 a 24.42,24.42 0 0 0 3.72,0 c 0,-3 -0.93,-4.93 -2.69,-4.93 -1.39,0 -2.85,1.53 -2.85,5.59 0,3.28 1.69,7.21 5.57,7.21 a 5.91,5.91 0 0 0 3.19,-0.85 l -0.46,1.68 a 8.37,8.37 0 0 1 -4.35,1.22 c -4.75,0 -7.74,-3.33 -7.74,-8.23 0,-4.9 3.54,-7.89 7,-7.89 3.92,0 6.5,3.33 6.5,7.79 -1.28,0 -2.68,-0.09 -4,-0.09 -1.32,0 -2.8,0.08 -4.53,0.12 z"
     id="path502" />
  <path
     class="cls-2"
     d="m 264.2844,26.990006 c 1.68,0 3.83,0.74 3.84,3.21 0,1.89 -1.7,4.09 -4.77,4.57 l 0.48,1.28 c 2.62,-0.58 5.67,0.54 5.67,4.23 a 5,5 0 0 1 -4.67,5.13 c -1.5,0 -2.6,-0.56 -2.69,-2.26 -0.09,-1.7 -0.13,-4.5 -0.13,-7.9 0,-3.4 0.09,-5.53 0.15,-6.68 0.09,-1.37 0.57,-1.53 2.12,-1.58 m -9.26,0.24 0.57,-1.39 c 2.13,0 2.27,0.1 3.66,0.1 1.39,0 5.28,-0.19 6.71,-0.19 4.14,0 6.68,1.21 6.68,4.35 0,2.31 -3,4 -4.52,4.62 v 0.1 c 2.94,0.46 5.77,1.79 5.77,5.28 0,3.67 -3.57,6.61 -9,6.56 -2.21,0 -3.8,-0.16 -5.74,-0.16 -1.94,0 -4.36,0.05 -4.36,0.05 l -0.29,-1.23 c 1.66,-0.12 3.2,-0.57 3.38,-3 0.18,-2.43 0.23,-5 0.23,-7.24 0,-2.24 -0.09,-4.09 -0.14,-5.3 -0.05,-1.75 -0.51,-2.64 -2.95,-2.55 z"
     id="path504" />
  <rect
     class="cls-1"
     x="-63.98"
     y="167.2244"
     width="63.98"
     height="1"
     transform="rotate(-90)"
     id="rect506" />
</svg>
